<?xml version="1.0" standalone="no"?>
<!DOCTYPE svg PUBLIC "-//W3C//DTD SVG 20010904//EN"
 "http://www.w3.org/TR/2001/REC-SVG-20010904/DTD/svg10.dtd">
<svg version="1.0" xmlns="http://www.w3.org/2000/svg"
 width="600.000000pt" height="600.000000pt" viewBox="0 0 600.000000 600.000000"
 preserveAspectRatio="xMidYMid meet">
<metadata>
Created by potrace 1.11, written by Peter Selinger 2001-2013
</metadata>
<g transform="translate(0.000000,600.000000) scale(0.100000,-0.100000)"
fill="#000000" stroke="none">
<path d="M2837 5593 c-2 -1 -32 -4 -67 -7 -86 -6 -172 -16 -189 -22 -8 -3 -30
-7 -50 -10 -77 -11 -263 -55 -301 -71 -8 -3 -19 -7 -25 -9 -203 -54 -551 -229
-754 -380 -26 -18 -51 -37 -56 -41 -217 -161 -463 -429 -616 -673 -30 -47 -60
-95 -66 -105 -21 -33 -130 -256 -156 -320 -41 -98 -99 -279 -113 -348 -2 -10
-6 -27 -9 -37 -6 -20 -13 -51 -21 -90 -2 -14 -7 -35 -9 -48 -3 -12 -8 -42 -11
-66 -2 -24 -7 -55 -9 -67 -25 -127 -24 -553 1 -684 3 -16 7 -43 9 -60 1 -16 5
-46 9 -65 4 -19 9 -44 11 -55 2 -11 4 -20 5 -20 1 0 3 -11 6 -25 16 -100 137
-470 157 -478 4 -2 7 -8 7 -13 0 -12 81 -177 116 -239 15 -25 32 -54 38 -65
31 -54 90 -140 97 -143 5 -2 9 -8 9 -14 0 -6 10 -22 23 -37 12 -15 33 -43 47
-61 14 -19 39 -50 56 -70 17 -19 39 -46 50 -59 53 -66 233 -238 339 -323 118
-95 322 -223 457 -287 130 -62 199 -91 214 -91 8 0 14 -5 14 -11 0 -5 4 -8 8
-5 5 3 19 -1 33 -7 13 -7 44 -19 69 -26 25 -7 63 -19 85 -26 45 -16 158 -45
195 -51 14 -3 59 -11 100 -19 41 -8 100 -17 130 -20 30 -3 82 -8 115 -12 124
-13 406 -6 545 12 25 3 61 8 80 10 19 3 63 11 98 19 34 7 62 11 62 9 0 -3 7 0
15 7 8 7 15 10 15 7 0 -11 290 76 365 109 204 89 275 123 365 176 58 33 107
65 108 69 2 5 9 9 15 9 7 0 28 14 47 30 19 16 39 30 43 30 5 0 14 6 21 12 7 7
28 24 46 38 116 86 249 212 365 344 33 38 66 75 73 82 6 7 12 17 12 22 0 6 4
12 8 14 21 9 162 213 223 323 18 33 37 63 42 66 5 3 8 9 8 13 -1 3 14 39 32
79 48 101 77 166 77 171 0 2 7 20 15 40 8 20 15 37 14 38 0 2 6 21 15 43 25
65 87 293 92 338 1 9 2 18 4 20 2 3 7 29 15 82 12 82 16 121 19 166 2 25 6 51
10 57 4 7 1 12 -6 12 -8 0 -9 3 -2 8 19 13 8 403 -16 546 -5 32 -9 61 -8 65 1
3 -2 17 -5 31 -4 14 -9 36 -11 50 -5 34 -36 161 -43 180 -5 13 -10 31 -17 65
-1 6 -4 15 -7 20 -6 10 -20 61 -19 70 0 3 -7 19 -16 36 -8 17 -17 38 -19 47
-2 10 -13 40 -26 67 -12 28 -21 51 -21 52 2 3 -116 234 -139 272 -32 55 -177
268 -194 287 -5 6 -26 30 -45 54 -107 133 -273 297 -400 395 -36 28 -67 52
-70 55 -29 30 -338 220 -358 220 -5 0 -15 7 -22 15 -7 8 -16 13 -20 10 -5 -3
-15 2 -23 10 -9 8 -20 15 -25 15 -5 0 -40 14 -78 31 -55 25 -239 95 -259 99
-3 0 -10 2 -17 5 -23 7 -164 44 -189 49 -33 6 -126 24 -169 32 -19 3 -53 8
-75 10 -22 2 -62 6 -90 10 -48 6 -403 12 -408 7z"/>
</g>
</svg>
